<svg xmlns="http://www.w3.org/2000/svg" xmlns:xlink="http://www.w3.org/1999/xlink" width="50" zoomAndPan="magnify" viewBox="0 0 37.5 37.499999" height="50" preserveAspectRatio="xMidYMid meet" version="1.0"><defs><clipPath id="1a0400a1a5"><path d="M 4 8 L 33 8 L 33 36.265625 L 4 36.265625 Z M 4 8 " clip-rule="nonzero"/></clipPath></defs><g clip-path="url(#1a0400a1a5)"><path fill="#bf0000" d="M 20.011719 36.601562 C 19.511719 36.601562 19.011719 36.539062 18.503906 36.414062 C 16.976562 36.03125 15.488281 35.183594 14.015625 34.089844 C 15.210938 34.222656 16.445312 34.265625 17.675781 34.265625 C 18.265625 34.265625 18.851562 34.257812 19.4375 34.242188 C 21.859375 34.125 24.191406 33.917969 26.167969 33.292969 C 26.148438 33.3125 26.128906 33.335938 26.109375 33.355469 C 24.09375 35.511719 22.085938 36.601562 20.011719 36.601562 M 5.222656 24.550781 C 5.089844 24.289062 4.96875 24.019531 4.859375 23.75 C 3.707031 20.90625 4.316406 18.121094 6.8125 15.449219 C 7.3125 14.914062 7.886719 14.382812 8.53125 13.867188 C 6.492188 17.488281 5.375 21.382812 5.222656 24.550781 M 31.476562 24.070312 C 31.210938 20.59375 29.941406 16.214844 27.609375 12.363281 C 26.695312 10.855469 25.679688 9.574219 24.59375 8.5625 C 26.898438 8.761719 28.839844 9.503906 30.199219 10.789062 C 32.695312 13.058594 33.304688 17.09375 32.148438 21.785156 C 31.960938 22.5625 31.734375 23.324219 31.476562 24.070312 " fill-opacity="1" fill-rule="nonzero"/></g><path fill="#ffde59" d="M 14.015625 34.089844 C 12.484375 33.921875 11.015625 33.605469 9.703125 33.050781 C 6.875 31.855469 5.335938 29.453125 5.214844 25.796875 C 5.199219 25.398438 5.203125 24.980469 5.222656 24.550781 C 6.480469 27.078125 8.691406 29.378906 10.902344 31.476562 C 11.9375 32.417969 12.972656 33.316406 14.015625 34.089844 M 26.167969 33.292969 C 28.1875 31.101562 30.199219 27.804688 31.476562 24.070312 C 31.496094 24.324219 31.511719 24.574219 31.519531 24.816406 C 31.640625 28.472656 30.613281 30.96875 28.304688 32.355469 C 27.65625 32.742188 26.941406 33.050781 26.167969 33.292969 M 8.53125 13.867188 C 8.683594 13.597656 8.84375 13.328125 9.007812 13.058594 C 11.644531 8.730469 15.089844 6.058594 18.453125 5.96875 C 18.558594 5.964844 18.667969 5.960938 18.773438 5.960938 C 20.804688 5.960938 22.792969 6.894531 24.59375 8.5625 C 24.171875 8.527344 23.742188 8.507812 23.296875 8.507812 C 21.804688 8.507812 20.191406 8.714844 18.503906 9.125 C 14.585938 10.074219 11.046875 11.855469 8.53125 13.867188 " fill-opacity="1" fill-rule="nonzero"/><path fill="#ff914d" d="M 17.675781 34.265625 C 16.445312 34.265625 15.210938 34.222656 14.015625 34.089844 C 12.972656 33.316406 11.9375 32.417969 10.902344 31.476562 C 8.691406 29.378906 6.480469 27.078125 5.222656 24.550781 C 5.375 21.382812 6.492188 17.488281 8.53125 13.867188 C 11.046875 11.855469 14.585938 10.074219 18.503906 9.125 C 20.191406 8.714844 21.804688 8.507812 23.296875 8.507812 C 23.742188 8.507812 24.171875 8.527344 24.59375 8.5625 C 25.679688 9.574219 26.695312 10.855469 27.609375 12.363281 C 29.941406 16.214844 31.210938 20.59375 31.476562 24.070312 C 30.199219 27.804688 28.1875 31.101562 26.167969 33.292969 C 24.191406 33.917969 21.859375 34.125 19.4375 34.242188 C 18.851562 34.257812 18.265625 34.265625 17.675781 34.265625 " fill-opacity="1" fill-rule="nonzero"/><path fill="#bf0000" d="M 25.085938 5.40625 C 23.59375 5.40625 22.382812 4.195312 22.382812 2.703125 C 22.382812 1.210938 23.59375 0 25.085938 0 C 26.578125 0 27.789062 1.210938 27.789062 2.703125 C 27.789062 4.195312 26.578125 5.40625 25.085938 5.40625 " fill-opacity="1" fill-rule="nonzero"/><path fill="#ffde59" d="M 30.492188 9.507812 C 29.746094 9.507812 29.140625 8.902344 29.140625 8.15625 C 29.140625 7.410156 29.746094 6.804688 30.492188 6.804688 C 31.242188 6.804688 31.84375 7.410156 31.84375 8.15625 C 31.84375 8.902344 31.242188 9.507812 30.492188 9.507812 " fill-opacity="1" fill-rule="nonzero"/><path fill="#ffffff" d="M 26.773438 19.429688 L 15.328125 12.824219 C 13.96875 12.039062 12.273438 13.019531 12.273438 14.585938 L 12.273438 27.800781 C 12.273438 29.371094 13.96875 30.351562 15.328125 29.566406 L 26.773438 22.957031 C 28.128906 22.175781 28.128906 20.214844 26.773438 19.429688 " fill-opacity="1" fill-rule="nonzero"/></svg>