<?xml version="1.0" standalone="no"?>
<!DOCTYPE svg PUBLIC "-//W3C//DTD SVG 20010904//EN"
 "http://www.w3.org/TR/2001/REC-SVG-20010904/DTD/svg10.dtd">
<svg version="1.0" xmlns="http://www.w3.org/2000/svg"
 width="509.000000pt" height="509.000000pt" viewBox="0 0 509.000000 509.000000"
 preserveAspectRatio="xMidYMid meet">

<g transform="translate(0.000000,509.000000) scale(0.100000,-0.100000)"
fill="#FC4747" stroke="#FFFF" stroke-width="50">
<path d="M2275 4999 c-308 -32 -631 -128 -895 -266 -704 -369 -1180 -1037
-1307 -1835 -24 -156 -25 -535 0 -699 54 -359 181 -700 375 -999 75 -116 188
-266 240 -319 23 -24 55 -60 70 -80 15 -20 34 -40 42 -45 8 -5 47 -41 87 -80
139 -137 366 -303 476 -349 26 -11 47 -23 47 -27 0 -3 21 -16 48 -27 68 -30
136 -58 142 -59 3 0 35 -15 72 -32 37 -18 76 -32 85 -32 10 0 31 -7 46 -15 37
-19 89 -34 157 -45 48 -8 71 -13 115 -24 6 -1 19 -5 30 -9 35 -11 78 -17 160
-22 44 -3 100 -8 125 -11 74 -11 436 -3 470 10 20 7 63 15 125 22 64 7 144 23
170 34 28 13 126 41 153 45 13 2 42 12 65 23 24 11 62 25 86 32 48 13 125 48
186 85 22 13 45 24 51 25 7 0 52 25 100 56 49 30 104 62 122 71 17 8 32 19 32
23 0 5 30 29 68 54 87 58 138 96 129 96 -4 0 8 14 26 30 19 17 37 30 41 30 11
0 190 193 271 292 30 37 93 129 139 205 47 76 97 158 113 183 30 49 133 282
133 303 0 7 11 46 25 87 42 122 66 212 61 225 -2 7 -1 16 4 21 10 11 19 58 26
134 5 72 14 132 21 143 7 11 7 433 0 444 -6 10 -15 68 -22 145 -7 83 -17 138
-26 144 -5 3 -7 9 -5 13 6 10 -22 131 -33 145 -5 6 -19 45 -31 86 -79 268
-236 575 -417 813 -106 139 -333 364 -473 469 -338 251 -721 412 -1130 473
-126 19 -470 27 -595 14z m-233 -1558 c79 -47 174 -101 568 -328 876 -504 885
-510 865 -519 -10 -4 -117 -66 -615 -354 -604 -349 -901 -520 -906 -520 -2 0
-4 398 -4 885 0 487 2 885 5 885 3 0 42 -22 87 -49z"/>
</g>
</svg>
